<svg width="165" height="56" viewBox="0 0 165 56" fill="none" xmlns="http://www.w3.org/2000/svg">
<g clip-path="url(#clip0_1_146)" filter="url(#filter0_d_1_146)">
<path d="M37.6876 11.8872C37.6876 11.6571 37.4526 11.5804 37.2959 11.5037C37.1392 11.5037 33.7705 11.2737 33.7705 11.2737C33.7705 11.2737 31.4202 8.97292 31.1851 8.74284C30.9501 8.51276 30.4017 8.58946 30.245 8.58946C30.245 8.58946 29.6966 8.74284 28.9132 8.97292C28.1297 6.74885 26.7979 4.75487 24.3693 4.75487H24.1342C23.4291 3.83457 22.5674 3.45111 21.8623 3.45111C16.2216 3.45111 13.5579 10.3534 12.6961 13.8812C10.5025 14.5714 8.93563 15.0316 8.77894 15.0316C7.60379 15.415 7.52545 15.415 7.36876 16.5654C7.21208 17.5624 4 41.8737 4 41.8737L28.9915 46.4752L42.5449 43.6376C42.4666 43.5609 37.766 12.1173 37.6876 11.8872ZM27.5813 9.43307C26.9546 9.66314 26.2495 9.81652 25.4661 10.0466V9.58645C25.4661 8.206 25.231 7.13231 24.9177 6.21201C26.1712 6.51878 27.0329 7.89923 27.5813 9.43307ZM23.4291 6.59547C23.7425 7.43908 23.9775 8.66615 23.9775 10.2767V10.5067C22.6457 10.8902 21.0788 11.3504 19.5903 11.8105C20.4521 8.74284 22.019 7.13231 23.4291 6.59547ZM21.7056 5.06164C21.9406 5.06164 22.1756 5.13833 22.4107 5.29171C20.6088 6.13532 18.6502 8.206 17.8668 12.424C16.6916 12.8075 15.5165 13.1143 14.4197 13.4977C15.4381 10.2767 17.7101 5.06164 21.7056 5.06164Z" fill="#B4A6A2"/>
<path d="M37.3743 11.5804C37.2176 11.5804 33.8488 11.3503 33.8488 11.3503C33.8488 11.3503 31.4985 9.0496 31.2635 8.81952C31.1852 8.74283 31.0285 8.66614 30.8718 8.66614L28.9915 46.4752L42.5449 43.6376C42.5449 43.6376 37.766 12.194 37.766 11.9639C37.6877 11.6571 37.531 11.5804 37.3743 11.5804Z" fill="#B4A6A2"/>
<path d="M24.3693 18.8662L22.7241 23.6978C22.7241 23.6978 21.2355 22.9309 19.4336 22.9309C16.77 22.9309 16.6916 24.5414 16.6916 24.9248C16.6916 27.1489 22.5674 27.9925 22.5674 33.2075C22.5674 37.2722 19.9037 39.9564 16.3783 39.9564C12.0694 39.9564 9.87576 37.3489 9.87576 37.3489L11.0509 33.6677C11.0509 33.6677 13.3229 35.585 15.2031 35.585C16.4566 35.585 16.9267 34.588 16.9267 33.8978C16.9267 30.9835 12.0694 30.8301 12.0694 26.0752C12.0694 22.0872 15.0464 18.176 20.9222 18.176C23.2725 18.2527 24.3693 18.8662 24.3693 18.8662Z" fill="white"/>
<path d="M58.2919 27.9925C56.9601 27.3023 56.255 26.6887 56.255 25.8451C56.255 24.7714 57.1951 24.0812 58.762 24.0812C60.4855 24.0812 62.0524 24.7714 62.0524 24.7714L63.3059 21.0902C63.3059 21.0902 62.1308 20.2466 58.8403 20.2466C54.2181 20.2466 50.9277 22.8542 50.9277 26.5354C50.9277 28.606 52.4162 30.2166 54.4531 31.3669C56.0983 32.2872 56.6467 32.9008 56.6467 33.8978C56.6467 34.8948 55.8633 35.6617 54.2964 35.6617C52.0245 35.6617 49.9092 34.5113 49.9092 34.5113L48.6557 38.1158C48.6557 38.1158 50.6143 39.4196 53.9047 39.4196C58.6836 39.4196 62.1307 37.1188 62.1307 32.9775C62.1307 30.7534 60.4072 29.1429 58.2919 27.9925ZM77.3294 20.2466C74.9791 20.2466 73.0988 21.3203 71.6886 23.0075H71.6103L73.6472 12.5775H68.3199L63.1492 39.1128H68.4766L70.2785 29.9865C70.9835 26.5354 72.7854 24.388 74.509 24.388C75.6841 24.388 76.1542 25.1549 76.1542 26.3053C76.1542 26.9955 76.0759 27.9158 75.9192 28.606L73.8822 39.0361H79.2096L81.3249 28.2993C81.5599 27.1489 81.7166 25.7684 81.7166 24.9248C81.6382 22.0105 80.0714 20.2466 77.3294 20.2466ZM93.7031 20.2466C87.279 20.2466 83.0484 25.9218 83.0484 32.2105C83.0484 36.2752 85.6338 39.4963 90.4127 39.4963C96.6802 39.4963 100.911 33.9745 100.911 27.5323C100.911 23.7745 98.7171 20.2466 93.7031 20.2466ZM91.1178 35.4316C89.3159 35.4316 88.5325 33.8978 88.5325 32.0572C88.5325 29.0662 90.0993 24.1579 92.998 24.1579C94.8783 24.1579 95.505 25.7684 95.505 27.3023C95.505 30.5233 93.9381 35.4316 91.1178 35.4316ZM114.542 20.2466C110.939 20.2466 108.902 23.3143 108.902 23.3143H108.823L109.137 20.5534H104.436C104.201 22.4707 103.809 25.3083 103.339 27.4557L99.6572 46.5519H104.985L106.473 38.806H106.551C106.551 38.806 107.648 39.4963 109.685 39.4963C115.953 39.4963 120.026 33.2075 120.026 26.9188C120.026 23.3143 118.46 20.2466 114.542 20.2466ZM109.45 35.5083C108.04 35.5083 107.257 34.7414 107.257 34.7414L108.118 29.8331C108.745 26.612 110.469 24.388 112.349 24.388C113.994 24.388 114.464 25.8451 114.464 27.2256C114.464 30.7534 112.427 35.5083 109.45 35.5083ZM127.626 12.7308C125.902 12.7308 124.57 14.0346 124.57 15.7218C124.57 17.2557 125.589 18.3293 127.077 18.3293H127.156C128.801 18.3293 130.211 17.2557 130.289 15.3384C130.289 13.8045 129.271 12.7308 127.626 12.7308ZM120.183 39.0361H125.511L129.114 20.5534H123.787L120.183 39.0361ZM142.668 20.6301H138.986L139.142 19.7865C139.456 18.0226 140.552 16.412 142.276 16.412C143.216 16.412 144 16.6421 144 16.6421L145.018 12.5775C145.018 12.5775 144.078 12.1173 142.119 12.1173C140.239 12.1173 138.359 12.6542 136.87 13.8812C135.068 15.4151 134.207 17.5624 133.815 19.7865L133.658 20.6301H131.151L130.368 24.5414H132.875L130.054 39.1128H135.382L138.202 24.5414H141.884L142.668 20.6301ZM155.438 20.6301C155.438 20.6301 152.069 28.8361 150.58 33.2842H150.502C150.424 31.8271 149.17 20.6301 149.17 20.6301H143.529L146.742 37.579C146.82 37.9624 146.742 38.1925 146.663 38.4226C146.036 39.5729 145.018 40.7233 143.764 41.5669C142.746 42.2572 141.649 42.7173 140.787 43.0241L142.276 47.4722C143.373 47.2421 145.566 46.3985 147.525 44.6346C149.954 42.4105 152.226 38.9594 154.498 34.2812L161 20.6301H155.438Z" fill="#B4A6A2"/>
</g>
<defs>
<filter id="filter0_d_1_146" x="0" y="0" width="165" height="59" filterUnits="userSpaceOnUse" color-interpolation-filters="sRGB">
<feFlood flood-opacity="0" result="BackgroundImageFix"/>
<feColorMatrix in="SourceAlpha" type="matrix" values="0 0 0 0 0 0 0 0 0 0 0 0 0 0 0 0 0 0 127 0" result="hardAlpha"/>
<feOffset dy="4"/>
<feGaussianBlur stdDeviation="2"/>
<feComposite in2="hardAlpha" operator="out"/>
<feColorMatrix type="matrix" values="0 0 0 0 0 0 0 0 0 0 0 0 0 0 0 0 0 0 0.25 0"/>
<feBlend mode="normal" in2="BackgroundImageFix" result="effect1_dropShadow_1_146"/>
<feBlend mode="normal" in="SourceGraphic" in2="effect1_dropShadow_1_146" result="shape"/>
</filter>
<clipPath id="clip0_1_146">
<rect width="157" height="51" fill="white" transform="translate(4)"/>
</clipPath>
</defs>
</svg>
